<mxfile host="www.draw.io" modified="2019-11-05T06:26:42.501Z" agent="Mozilla/5.0 (Windows NT 10.0; Win64; x64) AppleWebKit/537.36 (KHTML, like Gecko) Chrome/78.0.3904.70 Safari/537.36" etag="KvIDMQ-6-quIJpvD2VcO" version="12.2.0" type="github" pages="1">
  <diagram id="6myzKixxu8G4ZH236NRv" name="第 1 页">
    <mxGraphModel dx="1422" dy="713" grid="1" gridSize="10" guides="1" tooltips="1" connect="1" arrows="1" fold="1" page="1" pageScale="1" pageWidth="827" pageHeight="1169" math="0" shadow="0">
      <root>
        <mxCell id="0"/>
        <mxCell id="1" parent="0"/>
        <mxCell id="qdtEfzOBQfRaHVUAUm6t-4" style="edgeStyle=orthogonalEdgeStyle;rounded=0;orthogonalLoop=1;jettySize=auto;html=1;entryX=0.5;entryY=0;entryDx=0;entryDy=0;" edge="1" parent="1" source="qdtEfzOBQfRaHVUAUm6t-1" target="qdtEfzOBQfRaHVUAUm6t-2">
          <mxGeometry relative="1" as="geometry"/>
        </mxCell>
        <mxCell id="qdtEfzOBQfRaHVUAUm6t-1" value="InterProcessSemaphoreMutex.acquire()" style="rounded=1;whiteSpace=wrap;html=1;" vertex="1" parent="1">
          <mxGeometry x="60" y="60" width="230" height="60" as="geometry"/>
        </mxCell>
        <mxCell id="qdtEfzOBQfRaHVUAUm6t-5" style="edgeStyle=orthogonalEdgeStyle;rounded=0;orthogonalLoop=1;jettySize=auto;html=1;entryX=0;entryY=0.5;entryDx=0;entryDy=0;" edge="1" parent="1" source="qdtEfzOBQfRaHVUAUm6t-2" target="qdtEfzOBQfRaHVUAUm6t-3">
          <mxGeometry relative="1" as="geometry"/>
        </mxCell>
        <mxCell id="qdtEfzOBQfRaHVUAUm6t-2" value="本质上用的还是InterProcessMutex" style="rounded=1;whiteSpace=wrap;html=1;" vertex="1" parent="1">
          <mxGeometry x="80" y="230" width="120" height="60" as="geometry"/>
        </mxCell>
        <mxCell id="qdtEfzOBQfRaHVUAUm6t-3" value="while 循环是，设置qty为1，只能有一个加锁，保证里不可重入。" style="rounded=1;whiteSpace=wrap;html=1;" vertex="1" parent="1">
          <mxGeometry x="270" y="230" width="120" height="60" as="geometry"/>
        </mxCell>
      </root>
    </mxGraphModel>
  </diagram>
</mxfile>
